<svg width="96" height="253" viewBox="0 0 96 253" fill="none" xmlns="http://www.w3.org/2000/svg">
<path d="M2.51549 246.334C3.99241 250.813 8.85586 253.248 13.2084 251.432C36.2664 241.813 56.254 225.736 70.8066 204.986C87.0198 181.867 95.6604 154.126 95.4977 125.713C95.3351 97.2993 86.3775 69.6626 69.9007 46.7383C55.1114 26.1618 34.9409 10.3237 11.7741 0.979115C7.4009 -0.784862 2.567 1.70693 1.1418 6.20197V6.20197C-0.261528 10.628 2.17426 15.3294 6.4667 17.0998C26.3739 25.3103 43.7047 39.024 56.4583 56.7681C70.8632 76.8097 78.6944 100.971 78.8366 125.812C78.9787 150.652 71.4247 174.905 57.2503 195.116C44.6996 213.012 27.5252 226.932 7.71135 235.378C3.44168 237.198 1.06195 241.926 2.51549 246.334V246.334Z" fill="black"/>
</svg>
